<?xml version="1.0" encoding="iso-8859-1"?>
<!-- Generator: Adobe Illustrator 19.0.0, SVG Export Plug-In . SVG Version: 6.00 Build 0)  -->
<svg height="512" id="Layer_1" version="1.1" viewBox="0 0 497 497" width="512" x="0px"
    xml:space="preserve" xmlns="http://www.w3.org/2000/svg" y="0px" style="enable-background:new 0 0 497 497;">
<g>
	<circle cx="248.5" cy="341.361" r="155.639" style="fill:#FDB058;"/>
  <circle cx="248.5" cy="341.361" r="118.393" style="fill:#FDE475;"/>
  <g>
		<path
        d="M239.454,302.725l-5.881,3.651c-1.825,1.216-3.651,1.622-5.07,1.622    c-5.882,0-9.938-6.288-9.938-12.575c0-4.258,1.826-8.315,5.882-10.748l26.771-16.225c1.622-1.014,3.65-1.42,5.881-1.42    c6.49,0,13.994,3.853,13.994,9.938v128.989c0,6.49-7.909,9.735-15.819,9.735c-7.91,0-15.82-3.245-15.82-9.735V302.725z"
        style="fill:#FDB058;"/>
	</g>
  <path d="M194.105,229.952h45.953l-18.555-72.26c-21.936,3.21-42.642,10.26-61.401,20.461L194.105,229.952z" style="fill:#D8D8DA;"/>
  <path d="M275.498,157.692l-18.555,72.26h45.953l34.004-51.798   C318.14,167.952,297.434,160.902,275.498,157.692z" style="fill:#D8D8DA;"/>
  <path
      d="M208.182,160.145l31.875,69.807h45.953l-33.874-74.183c-1.21-0.023-2.421-0.046-3.637-0.046   C234.657,155.723,221.168,157.258,208.182,160.145z"
      style="fill:#E92740;"/>
  <path d="M148.152,229.952h45.953l-25.61-56.085c-12.777,6.128-24.744,13.68-35.705,22.442L148.152,229.952z" style="fill:#E92740;"/>
  <path
      d="M288.818,160.145c-12.986-2.887-26.475-4.422-40.318-4.422c-1.216,0-2.426,0.022-3.636,0.046   l-33.874,74.183h45.953L288.818,160.145z"
      style="fill:#0D84FD;"/>
  <path d="M328.505,173.867l-25.61,56.085h45.953l15.362-33.643   C353.249,187.547,341.282,179.995,328.505,173.867z" style="fill:#0D84FD;"/>
  <polygon points="135.056,0 210.533,114.976 240.057,229.951 194.105,229.951 118.628,114.976 89.103,0  " style="fill:#EAEAEC;"/>
  <polygon points="135.056,0 240.057,229.951 286.01,229.951 181.009,0  " style="fill:#FD5C6F;"/>
  <polygon points="43.151,0 148.152,229.951 194.105,229.951 89.103,0  " style="fill:#FD5C6F;"/>
  <polygon points="361.944,0 286.467,114.976 256.943,229.951 302.895,229.951 378.372,114.976 407.897,0  " style="fill:#EAEAEC;"/>
  <polygon points="361.944,0 256.943,229.951 210.99,229.951 315.991,0  " style="fill:#4695FD;"/>
  <polygon points="453.849,0 348.848,229.951 302.895,229.951 407.897,0  " style="fill:#4695FD;"/>
</g>















</svg>
